<?xml version="1.0" encoding="utf-8"?>
<!-- Svg Vector Icons : http://www.onlinewebfonts.com/icon -->
<!DOCTYPE svg PUBLIC "-//W3C//DTD SVG 1.1//EN" "http://www.w3.org/Graphics/SVG/1.1/DTD/svg11.dtd">
<svg version="1.1" xmlns="http://www.w3.org/2000/svg" xmlns:xlink="http://www.w3.org/1999/xlink" x="0px" y="0px" viewBox="0 0 1000 1000" enable-background="new 0 0 1000 1000" xml:space="preserve">
<metadata> Svg Vector Icons : http://www.onlinewebfonts.com/icon </metadata>
<g><path d="M522.5,847.6V10H380.1v980h552.7V847.6H522.5z"/><path d="M249,959.6H72.4V990h207V866.5H249L249,959.6z"/><path d="M231.9,682.5c-16.7-8.5-35.5-12.7-56.6-12.7c-20.9,0-39.5,4-55.8,12.2c-16.3,8.2-29.2,19.9-38.4,35.3c-9.1,15.4-13.9,32.7-13.9,52c0,29.4,9.7,53.4,29.2,71.8c19.6,18.6,46.5,27.9,81.1,27.9c18.2,0,35.5-4,52-12c16.3-8,29.2-19.6,38.7-35.1c9.5-15.4,14.2-32.9,14.2-52.6c0-18-4.4-34.9-12.9-50.5C261.2,703.2,248.6,691.1,231.9,682.5L231.9,682.5z M237.4,820.2c-14.4,13.5-34.2,20.3-59.3,20.3c-31.3,0-53.7-7-67-21.1C97.6,805.4,91,788.7,91,769.1c0-13.7,3.4-26,10.4-37.2c7-11,16.7-19.4,29.4-25.1c12.7-5.7,27.3-8.5,44.4-8.5c26.8,0,47.5,6.6,62.1,20.1c14.6,13.5,21.8,30.4,21.8,51.3C259.1,789.6,251.9,806.7,237.4,820.2L237.4,820.2z"/><path d="M279.4,632.9h-93.1v-93.1H156v93.1h-51.3V469.6h174.7v-30.4H104.7V367h174.7V213.2H249v123.5h-62.7V224.6H156v112.1h-51.3V213.2H72.4v450.1h207L279.4,632.9z"/><path d="M279.4,175.2h-93.1v-34c0-7,0.9-12.2,1.7-15.4c0.9-4.2,2.1-8.4,4.7-12.5c2.7-4.2,8.5-8.7,15.2-14.1c6.6-5.1,15.4-11.8,27.7-19.9l43.5-27.5V17.2l-56.8,36.3c-11,7.2-20.3,14.8-27.7,22.8c-3.4,3.8-6.8,9.3-10.4,16.5c-2.7-19.9-9.1-34.8-19.4-44.3s-22.6-14.4-37.4-14.4c-11.4,0-21.8,2.8-31.3,8.7c-9.5,5.7-15.4,13.5-19,23.2c-3.8,9.7-4.9,23.7-4.9,42.4v95.3h207v-28.5L279.4,175.2z M156,175.2h-51.3v-67.8c0-15.4,1.5-26.8,8-33.8c6.3-7.2,10.4-8.5,16.3-8.5c6.8,0,8.5,0.9,14.2,4.6c5.7,3.6,7.4,9.5,9.3,14.4c2.7,7,3.4,17.3,3.4,29.8L156,175.2L156,175.2z"/></g>
</svg>